<?xml version="1.0" standalone="no"?>
<!DOCTYPE svg PUBLIC "-//W3C//DTD SVG 20010904//EN"
 "http://www.w3.org/TR/2001/REC-SVG-20010904/DTD/svg10.dtd">
<svg version="1.0" xmlns="http://www.w3.org/2000/svg"
 width="360.000000pt" height="570.000000pt" viewBox="0 0 360.000000 570.000000"
 preserveAspectRatio="xMidYMid meet">
<g transform="translate(0.000000,570.000000) scale(0.100000,-0.100000)" fill="#cc092f" stroke="none">
<path d="M1470 5563 c-235 -17 -491 -105 -688 -237 -523 -348 -769 -1041 -570 -1604 129 -368 421 -642 785 -739 87 -23 117 -26 273 -27 193 0 282 12 439 64 174 56 302 132 430 255 141 135 224 274 278 467 20 74 30 95 39 87 23 -19 92 -173 117 -259 43 -148 59 -264 64 -476 10 -376 -43 -660 -188 -1004 -248 -587 -770 -1144 -1382 -1475 -48 -26 -87 -50 -87 -53 -1 -29 96 -422 104 -422 6 0 73 31 148 69 1052 530 1866 1484 2118 2481 70 276 95 503 87 783 -6 226 -25 366 -77 573 -104 409 -275 726 -539 998 -299 306 -661 478 -1091 516 -111 9 -165 10 -260 3z"/>
</g>
</svg>
